PathFileType	4	(X/Y/Z)	 s05c0302.trc
DataRate	CameraRate	NumFrames	NumMarkers	Units	OrigDataRate	OrigDataStartFrame	OrigNumFrames
200	200	7	49	mm	200	1	2000
Frame#	Time	racr			lacr			c7			jug			rlel			rdr			llel			ldr			s2			lic			ric			lasi			rasi			rpsi			lpsi			rgt			lgt			rth1			rth2			rth3			rth4			rlfc			rsh1			rsh2			rsh3			rsh4			rlmal			rmmal			rcal			rtoe			rmt5			lth1			lth2			lth4			lth3			llfc			lmfc			lsh1			lsh2			lsh3			lsh4			llmal			lmmal			lcal			ltoe			lmt5			SBIKE			LBIKE			RBIKE			
		X1	Y1	Z1	X2	Y2	Z2	X3	Y3	Z3	X4	Y4	Z4	X5	Y5	Z5	X6	Y6	Z6	X7	Y7	Z7	X8	Y8	Z8	X9	Y9	Z9	X10	Y10	Z10	X11	Y11	Z11	X12	Y12	Z12	X13	Y13	Z13	X14	Y14	Z14	X15	Y15	Z15	X16	Y16	Z16	X17	Y17	Z17	X18	Y18	Z18	X19	Y19	Z19	X20	Y20	Z20	X21	Y21	Z21	X22	Y22	Z22	X23	Y23	Z23	X24	Y24	Z24	X25	Y25	Z25	X26	Y26	Z26	X27	Y27	Z27	X28	Y28	Z28	X29	Y29	Z29	X30	Y30	Z30	X31	Y31	Z31	X32	Y32	Z32	X33	Y33	Z33	X34	Y34	Z34	X35	Y35	Z35	X36	Y36	Z36	X37	Y37	Z37	X38	Y38	Z38	X39	Y39	Z39	X40	Y40	Z40	X41	Y41	Z41	X42	Y42	Z42	X43	Y43	Z43	X44	Y44	Z44	X45	Y45	Z45	X46	Y46	Z46	X47	Y47	Z47	X48	Y48	Z48	X49	Y49	Z49	
1	0.0050	419.088300	1357.727966	-121.877164	434.362730	1377.093554	-407.300371	404.636131	1446.871492	-267.556539	390.489987	1290.480629	-268.493240	524.759611	1121.041341	-38.187253	697.517525	917.160763	-79.284034	517.779041	1125.706885	-501.291423	697.433038	920.810915	-443.539157	-116.709136	1165.226407	-264.586045	34.540400	1170.575930	-406.721821	38.139520	1190.864961	-127.694225	80.024713	1117.474626	-371.725280	72.913845	1127.528946	-153.755220	-82.397794	1210.697112	-224.829205	-77.762039	1212.039884	-312.196281	-12.278244	1066.752932	-89.775222	-42.324361	1069.486086	-434.315484	89.172758	1008.103763	-73.041244	176.967874	992.217375	-70.300659	243.734473	934.336496	-72.992067	192.077200	1024.002969	-81.581751	376.719364	858.210040	-99.238610	315.812007	764.429697	-78.628117	309.048815	676.408827	-90.635454	262.446079	605.078531	-97.130593	337.607571	669.092905	-115.234943	225.646003	476.190291	-111.203708	237.966019	510.878850	-187.362762	156.196760	439.058199	-158.201513	451.328827	437.065491	-145.304022	350.752052	405.964717	-83.230174	39.133474	951.492362	-458.508023	110.697505	904.798033	-461.490271	139.505569	925.837963	-449.436318	149.514489	822.221459	-465.180547	227.812696	692.703588	-439.418953	217.350229	684.660144	-330.347432	139.484605	601.309802	-461.449600	104.318456	522.185955	-446.649723	32.099829	470.548941	-445.343182	128.509021	506.165149	-421.313212	-40.575659	373.588145	-432.359641	-7.549107	393.783408	-357.400365	-113.504622	349.870464	-388.774433	161.300263	245.346329	-395.386550	50.701145	253.094114	-458.019839	-170.967856	901.336999	-265.923980	-43.621498	85.069563	-474.879818	-51.620667	79.771148	-77.276848	
2	0.0100	419.086743	1357.722611	-121.870541	434.374890	1377.081037	-407.298162	404.693748	1446.781558	-267.636600	390.468016	1290.466310	-268.497436	524.731387	1121.032717	-38.211977	697.510525	917.177241	-79.299221	517.793608	1125.714100	-501.269161	697.443546	920.823351	-443.555796	-116.700849	1165.208888	-264.638817	34.549152	1170.597074	-406.766138	38.128588	1190.822066	-127.711245	80.056376	1117.481081	-371.751688	72.887824	1127.522230	-153.768979	-82.400201	1210.687591	-224.882176	-77.746472	1212.024105	-312.234698	-12.253105	1066.738363	-89.806923	-42.309812	1069.453717	-434.343039	89.217958	1008.188711	-73.072345	177.035779	992.351089	-70.336626	243.841165	934.558693	-73.009208	192.109275	1024.172745	-81.621406	376.880772	858.523882	-99.254523	315.932740	764.678353	-78.666915	309.086524	676.670681	-90.674305	262.468366	605.393458	-97.150559	337.664995	669.349838	-115.267963	225.598114	476.500110	-111.215819	237.906474	511.168505	-187.385868	156.149649	439.421849	-158.249161	451.248303	437.241940	-145.308883	350.607848	406.285126	-83.217073	39.115149	951.423994	-458.529815	110.664133	904.657710	-461.463887	139.463391	925.697218	-449.431932	149.418744	822.089681	-465.149165	227.639977	692.505850	-439.375354	217.225704	684.510381	-330.315542	139.346844	601.131365	-461.447953	104.229465	521.941489	-446.630260	32.027945	470.263860	-445.352849	128.443311	505.949625	-421.299992	-40.567665	373.270625	-432.359154	-7.529415	393.467847	-357.424081	-113.488097	349.527935	-388.801938	161.389659	245.208877	-395.392932	50.794054	252.818870	-458.023328	-170.763552	901.332052	-265.731288	-43.636635	85.080635	-474.885380	-51.614294	79.753623	-77.278792	
3	0.0150	419.069051	1357.720841	-121.878119	434.362716	1377.073224	-407.299779	404.708926	1446.784342	-267.627054	390.467985	1290.458527	-268.497591	524.685716	1121.011823	-38.206313	697.503115	917.194847	-79.296357	517.801176	1125.718877	-501.250247	697.460824	920.838431	-443.597095	-116.689609	1165.199094	-264.664053	34.556034	1170.582350	-406.805872	38.113286	1190.801362	-127.734407	80.065420	1117.479423	-371.771787	72.859514	1127.505721	-153.795828	-82.422056	1210.681181	-224.912338	-77.748597	1212.014506	-312.273132	-12.236098	1066.745242	-89.831327	-42.310197	1069.410342	-434.370168	89.252852	1008.271937	-73.098574	177.072221	992.505380	-70.362036	243.916792	934.756666	-73.001771	192.136932	1024.378109	-81.640567	376.988156	858.728751	-99.275350	316.042357	764.962074	-78.689462	309.143783	676.922847	-90.723524	262.520980	605.658135	-97.187766	337.711811	669.625998	-115.288612	225.576813	476.818868	-111.227797	237.837842	511.507505	-187.426304	156.058279	439.773780	-158.274242	451.167100	437.415283	-145.306892	350.501723	406.530506	-83.225820	39.095444	951.349308	-458.541591	110.623002	904.543613	-461.445994	139.427304	925.569225	-449.407770	149.318577	821.975920	-465.131941	227.492066	692.351930	-439.339006	217.072089	684.378343	-330.244397	139.219442	600.932159	-461.424251	104.072185	521.549664	-446.666252	31.979097	470.016103	-445.330299	129.036926	505.795395	-422.800195	-40.556505	372.948070	-432.363169	-7.520183	393.112004	-357.438222	-113.462484	349.183997	-388.830580	161.478957	245.025564	-395.380694	50.895544	252.552618	-458.039737	-170.722562	901.292671	-265.607571	-43.630231	85.080855	-474.888159	-51.628651	79.766227	-77.282849	
4	0.0200	419.088311	1357.711017	-121.870879	434.343334	1377.062481	-407.289191	404.724326	1446.753903	-267.635204	390.458182	1290.434937	-268.483915	524.631441	1120.991509	-38.196133	697.457554	917.238759	-79.245446	517.794679	1125.728066	-501.231413	697.451214	920.828564	-443.597634	-116.695922	1165.181602	-264.696642	34.591088	1170.588344	-406.826747	38.458928	1191.042243	-127.889327	79.952250	1118.104085	-372.128560	72.314379	1127.486344	-154.555087	-82.410418	1210.670862	-224.950821	-77.727749	1212.011809	-312.311779	-12.366346	1066.680385	-89.825390	-42.299426	1069.374764	-434.398642	89.280936	1008.378295	-73.117769	177.108311	992.650817	-70.393651	243.973949	934.954030	-73.021628	192.113993	1024.581252	-81.659955	377.105460	858.945059	-99.318753	316.172138	765.202984	-78.717890	309.010162	677.062810	-91.479482	262.567580	605.945581	-97.233679	339.201285	670.879132	-115.431849	225.218621	477.670002	-110.950851	237.917877	511.788587	-187.443490	155.986173	440.077564	-158.272587	451.084115	437.623353	-145.319687	350.638274	406.676851	-83.334625	39.054419	951.249552	-458.557069	110.742806	903.761778	-461.110564	139.192695	925.316272	-449.161691	149.195627	821.783546	-465.073089	227.330189	692.194952	-439.267719	216.917000	684.223489	-330.166181	139.096535	600.749799	-461.417770	103.992663	521.342539	-446.652089	31.860434	469.786994	-445.375082	128.362235	505.904959	-421.630891	-40.582363	372.709800	-432.393785	-7.259340	392.674665	-357.525937	-113.399936	348.887486	-388.987680	161.579154	244.833051	-395.385067	50.987902	252.303840	-458.039872	-170.733154	901.314032	-265.655440	-43.635882	85.074158	-474.891891	-51.623195	79.774220	-77.289552	
5	0.0250	419.056010	1358.043928	-121.672482	434.287731	1377.414757	-407.288390	404.756405	1446.738728	-267.598104	390.324034	1290.897427	-268.421084	524.474940	1121.214761	-38.056609	697.436051	917.430161	-79.154760	517.882034	1126.061075	-501.665244	697.342428	920.772767	-443.615832	-116.783628	1165.304082	-264.597204	34.723339	1170.645771	-406.950830	38.392642	1191.140801	-127.988892	79.978117	1118.197597	-372.011963	72.243214	1127.473512	-154.330205	-82.351543	1210.742523	-225.008942	-77.669701	1212.049499	-312.404071	-12.507447	1066.942055	-89.867937	-42.354448	1069.418115	-434.390643	89.193772	1008.762798	-73.021628	176.992770	993.061312	-70.279011	243.898839	935.474247	-72.908189	192.048603	1024.986865	-81.581822	377.267393	859.264754	-99.397554	316.071844	765.742816	-78.637940	308.976376	677.715003	-91.392640	262.396778	606.449684	-97.122461	339.072262	671.507764	-115.316358	225.150459	478.025515	-110.958810	237.596039	512.356136	-187.482808	155.822067	440.480588	-158.351013	450.904658	438.056555	-145.301010	350.191502	407.331473	-83.085167	39.039169	951.213610	-458.401351	110.693428	903.657515	-461.087744	139.139032	925.207687	-449.168042	149.101128	821.714334	-465.067850	227.053654	692.230403	-439.254187	216.493976	684.597359	-329.707937	138.935312	600.704872	-461.368076	103.806057	521.419834	-446.661865	31.842320	469.516115	-445.331872	128.275964	505.886749	-421.599233	-40.582684	372.370873	-432.443654	-7.296118	392.405148	-357.504061	-113.407129	348.412789	-388.894150	161.647857	244.648092	-395.411237	51.059049	252.083384	-458.045938	-170.385201	901.535003	-266.462631	-43.679491	84.950460	-474.972693	-51.823973	80.069937	-77.305497	
6	0.0300	419.060911	1358.084117	-121.650619	434.323627	1377.451377	-407.288969	404.786191	1446.724886	-267.600989	390.327434	1290.931144	-268.434508	524.398150	1121.194995	-37.994434	697.408466	917.484968	-79.123817	517.783208	1125.986749	-501.539038	697.342828	920.802600	-443.656467	-116.822403	1165.351569	-264.573986	34.777574	1170.669091	-407.011446	38.392805	1191.281546	-128.017857	79.985292	1118.228112	-371.999743	72.356442	1127.505098	-154.470834	-82.349901	1210.798479	-225.048699	-77.641705	1212.055697	-312.466502	-12.511918	1067.044909	-89.798294	-42.387898	1069.426006	-434.410525	89.279195	1008.793213	-73.076855	177.055536	993.222763	-70.352445	243.957826	935.628479	-72.895410	192.078734	1025.142154	-81.616056	377.431934	859.556541	-99.382871	316.236186	765.900489	-78.681881	309.080256	677.940087	-91.487827	262.437076	606.734744	-97.165869	339.219002	671.705683	-115.535655	225.062011	478.397615	-110.942758	237.522265	512.681555	-187.502396	155.729020	440.920703	-158.394089	450.816478	438.216194	-145.286597	350.167064	407.580462	-83.180884	39.001629	951.145248	-458.366872	110.608914	903.522191	-461.073011	139.074130	925.102320	-449.157727	148.978687	821.599677	-465.035488	226.874353	692.123209	-439.198878	216.368875	684.361216	-329.728350	138.826004	600.546059	-461.318484	103.714023	521.247323	-446.633956	31.794420	469.258824	-445.304457	128.210172	505.723224	-421.576162	-40.560489	372.055362	-432.449835	-7.311440	392.176025	-357.462298	-113.382395	348.058693	-388.871108	161.764770	244.447882	-395.415398	51.151044	251.835873	-458.054836	-170.271819	901.599313	-266.716721	-43.676132	84.896081	-474.990344	-51.857327	80.091947	-77.305347	
7	0.0350	419.087393	1358.103581	-121.603589	434.320872	1377.453520	-407.289621	404.812548	1446.701410	-267.558052	390.340543	1290.949710	-268.410517	524.350401	1121.174451	-37.922522	697.399264	917.516222	-79.099918	517.758168	1125.978331	-501.582650	697.332634	920.805252	-443.657554	-116.823318	1165.385708	-264.576468	34.839505	1170.693157	-407.048937	38.367765	1191.316871	-128.076838	80.005355	1118.242643	-372.004214	72.348973	1127.516211	-154.503134	-82.330909	1210.811033	-225.080850	-77.619283	1212.061028	-312.491363	-12.512550	1067.082833	-89.827387	-42.401294	1069.406466	-434.434604	89.292482	1008.918170	-73.087582	177.099881	993.401494	-70.382143	244.039091	935.852498	-72.924137	192.095731	1025.306461	-81.652954	377.533733	859.775434	-99.431291	316.334096	766.212272	-78.693839	309.168851	678.357695	-91.561314	262.457377	607.106390	-97.209443	338.191458	671.947651	-115.815526	225.010551	478.813664	-110.978249	237.455899	512.993290	-187.521920	155.626781	441.336685	-158.400299	450.732876	438.434655	-145.307832	350.054840	407.913350	-83.203278	38.941679	951.093469	-458.349102	110.541110	903.425699	-461.043085	138.995649	924.990198	-449.153295	148.863992	821.492765	-464.978818	226.711332	692.004694	-439.129134	216.175477	684.214436	-329.657593	138.724773	600.385672	-461.290420	103.626861	521.062167	-446.613034	31.767338	469.016232	-445.298583	128.182963	505.522123	-421.578883	-40.542584	371.762859	-432.476012	-7.360379	391.938914	-357.445284	-113.361272	347.741623	-388.872361	161.866744	244.262565	-395.423499	51.265655	251.555422	-458.031467	-170.245032	901.629463	-266.904365	-43.673664	84.880775	-475.003440	-51.873014	80.111581	-77.306920	
